<?xml version="1.0" encoding="UTF-8"?>
<svg id="Logo" xmlns="http://www.w3.org/2000/svg" viewBox="0 0 531.3 285.84">
  <defs>
    <style>
      .cls-1 {
        fill: #cbbba0;
      }

      .cls-1, .cls-2 {
        stroke-width: 0px;
      }

      .cls-2 {
        fill: #fff;
      }
    </style>
  </defs>
  <g>
    <path class="cls-2" d="M79.91,133.16c-3.1,0-5.81-.51-8.13-1.53-2.32-1.02-4.1-2.57-5.33-4.65-1.23-2.08-1.85-4.66-1.85-7.76v-29.25h-10.67v-13.41h10.67v-14.36l17.32-3.38v17.74h14.15v13.41h-14.15v23.45c0,1.76.44,2.98,1.32,3.64.88.67,2.23,1,4.07,1h8.77v15.1h-16.16Z"/>
    <path class="cls-2" d="M134.52,134.22c-5.14,0-9.79-.65-13.94-1.95-4.16-1.3-7.75-3.22-10.77-5.76-3.03-2.53-5.33-5.61-6.92-9.24-1.58-3.63-2.38-7.76-2.38-12.41,0-6.13,1.41-11.39,4.22-15.79,2.82-4.4,6.76-7.76,11.83-10.09,5.07-2.32,11.05-3.48,17.96-3.48,5.07,0,9.7.67,13.89,2.01,4.19,1.34,7.78,3.26,10.77,5.76,2.99,2.5,5.3,5.56,6.92,9.19,1.62,3.63,2.43,7.76,2.43,12.41,0,6.06-1.41,11.28-4.22,15.68-2.82,4.4-6.76,7.78-11.83,10.14-5.07,2.36-11.05,3.54-17.95,3.54ZM134.41,120.59c3.52,0,6.5-.65,8.92-1.95,2.43-1.3,4.28-3.13,5.54-5.49,1.27-2.36,1.9-5.12,1.9-8.29,0-2.39-.35-4.56-1.06-6.5-.7-1.94-1.76-3.59-3.17-4.96-1.41-1.37-3.13-2.43-5.18-3.17-2.04-.74-4.33-1.11-6.86-1.11-3.38,0-6.3.63-8.77,1.9-2.46,1.27-4.33,3.08-5.6,5.44-1.27,2.36-1.9,5.16-1.9,8.4,0,2.47.37,4.65,1.11,6.55.74,1.9,1.8,3.52,3.17,4.86,1.37,1.34,3.06,2.39,5.07,3.17,2.01.78,4.28,1.16,6.81,1.16Z"/>
    <path class="cls-2" d="M176.76,133.16v-56.61h17l.85,9.61h.74c1.9-3.45,4.58-6.09,8.03-7.92,3.45-1.83,7.43-2.75,11.93-2.75,4.86,0,9.06,1.06,12.62,3.17,3.55,2.11,6.11,5.25,7.66,9.4h.95c2.18-4.44,5.16-7.64,8.92-9.61,3.77-1.97,8.08-2.96,12.94-2.96s9.15.95,12.67,2.85c3.52,1.9,6.2,4.77,8.03,8.61,1.83,3.84,2.75,8.78,2.75,14.84v31.37h-17.85v-29.04c0-3.1-.33-5.77-1-8.03-.67-2.25-1.87-4-3.59-5.23-1.73-1.23-4.1-1.85-7.13-1.85s-5.49.62-7.6,1.85c-2.11,1.23-3.73,2.98-4.86,5.23-1.13,2.25-1.69,4.82-1.69,7.71v29.36h-17.74v-28.83c0-3.17-.37-5.9-1.11-8.19-.74-2.29-1.97-4.05-3.7-5.28-1.73-1.23-4.07-1.85-7.02-1.85s-5.58.63-7.66,1.9c-2.08,1.27-3.64,3.01-4.7,5.23-1.06,2.22-1.58,4.77-1.58,7.66v29.36h-17.85Z"/>
  </g>
  <path class="cls-1" d="M292.4,133.11v-56.66h186.45v56.66h-186.45Z"/>
  <g>
    <path class="cls-2" d="M99.91,221.6c-3.59,0-6.78-.42-9.56-1.27-2.78-.85-5.16-2.01-7.13-3.49-1.97-1.48-3.49-3.17-4.54-5.07h-.63l-.63,8.87h-16.79v-76.99h17.74v29.47h.63c1.76-3.17,4.54-5.65,8.34-7.45,3.8-1.79,7.99-2.69,12.57-2.69,4.15,0,7.94.69,11.35,2.06,3.41,1.37,6.34,3.34,8.77,5.92,2.43,2.57,4.31,5.65,5.65,9.24,1.34,3.59,2.01,7.6,2.01,12.04,0,5.99-1.16,11.18-3.49,15.58-2.32,4.4-5.56,7.8-9.72,10.19-4.16,2.39-9.01,3.59-14.58,3.59ZM94.42,208.08c3.1,0,5.81-.63,8.13-1.9,2.32-1.27,4.12-3.06,5.39-5.39s1.9-5.17,1.9-8.55c0-2.54-.35-4.77-1.06-6.71-.7-1.94-1.74-3.57-3.12-4.91-1.37-1.34-3.01-2.36-4.91-3.06-1.9-.7-4.01-1.06-6.34-1.06-3.31,0-6.18.63-8.61,1.9-2.43,1.27-4.28,2.99-5.54,5.17-1.27,2.18-1.9,4.68-1.9,7.5v2.64c0,2.68.63,5.09,1.9,7.23,1.27,2.15,3.12,3.87,5.54,5.17,2.43,1.3,5.3,1.95,8.61,1.95Z"/>
    <path class="cls-2" d="M167.5,221.7c-5.14,0-9.79-.65-13.94-1.95-4.16-1.3-7.75-3.22-10.77-5.76-3.03-2.54-5.33-5.61-6.92-9.24-1.58-3.62-2.38-7.76-2.38-12.41,0-6.13,1.41-11.39,4.22-15.79,2.82-4.4,6.76-7.76,11.83-10.09,5.07-2.32,11.05-3.49,17.96-3.49,5.07,0,9.7.67,13.89,2.01,4.19,1.34,7.78,3.26,10.77,5.76,2.99,2.5,5.3,5.56,6.92,9.19,1.62,3.63,2.43,7.76,2.43,12.41,0,6.06-1.41,11.28-4.22,15.68-2.82,4.4-6.76,7.78-11.83,10.14-5.07,2.36-11.05,3.54-17.95,3.54ZM167.4,208.08c3.52,0,6.5-.65,8.92-1.95,2.43-1.3,4.28-3.13,5.54-5.49,1.27-2.36,1.9-5.12,1.9-8.29,0-2.39-.35-4.56-1.06-6.5-.7-1.94-1.76-3.59-3.17-4.96-1.41-1.37-3.13-2.43-5.18-3.17-2.04-.74-4.33-1.11-6.86-1.11-3.38,0-6.3.63-8.77,1.9-2.46,1.27-4.33,3.08-5.6,5.44-1.27,2.36-1.9,5.16-1.9,8.4,0,2.47.37,4.65,1.11,6.55s1.8,3.52,3.17,4.86c1.37,1.34,3.06,2.39,5.07,3.17,2.01.78,4.28,1.16,6.81,1.16Z"/>
    <path class="cls-2" d="M233.09,221.6c-4.93,0-9.24-.84-12.94-2.53-3.7-1.69-6.57-4.47-8.61-8.34-2.04-3.87-3.06-9.05-3.06-15.53v-31.16h17.85v27.99c0,3.38.42,6.27,1.27,8.66.84,2.39,2.2,4.24,4.07,5.54,1.86,1.3,4.38,1.95,7.55,1.95s6.02-.69,8.34-2.06c2.32-1.37,4.12-3.27,5.39-5.7,1.27-2.43,1.9-5.19,1.9-8.29v-28.09h17.85v56.61h-17.11l-.74-9.82h-.85c-1.69,3.31-4.45,5.93-8.29,7.87-3.84,1.94-8.04,2.9-12.62,2.9Z"/>
    <path class="cls-2" d="M283.04,220.65v-76.99h17.74v76.99h-17.74Z"/>
    <path class="cls-2" d="M311.35,220.65v-76.99h17.74v76.99h-17.74Z"/>
    <path class="cls-2" d="M365.1,221.6c-4.16,0-7.94-.67-11.35-2.01-3.42-1.34-6.35-3.29-8.82-5.86-2.47-2.57-4.35-5.65-5.65-9.24-1.3-3.59-1.95-7.6-1.95-12.04,0-6.13,1.14-11.35,3.43-15.68,2.29-4.33,5.53-7.69,9.72-10.09,4.19-2.39,9.06-3.59,14.63-3.59,3.66,0,6.87.42,9.61,1.27s5.1,2.01,7.08,3.49c1.97,1.48,3.49,3.17,4.54,5.07h.74l.53-8.87h16.79v56.61h-17.74v-9.19h-.74c-1.69,3.17-4.44,5.65-8.24,7.45-3.8,1.79-7.99,2.69-12.57,2.69ZM370.6,208.18c3.31,0,6.16-.65,8.55-1.95,2.39-1.3,4.22-3.06,5.49-5.28s1.9-4.7,1.9-7.45v-2.64c0-2.67-.63-5.09-1.9-7.23-1.27-2.15-3.1-3.86-5.49-5.12-2.39-1.27-5.25-1.9-8.55-1.9-3.03,0-5.7.6-8.03,1.79-2.32,1.2-4.14,2.98-5.44,5.33-1.3,2.36-1.95,5.26-1.95,8.71,0,3.24.63,6.06,1.9,8.45,1.27,2.39,3.06,4.21,5.39,5.44,2.32,1.23,5.03,1.85,8.13,1.85Z"/>
    <path class="cls-2" d="M416.22,238.28v-14.05h7.5c2.46,0,4.44-.21,5.92-.63,1.48-.42,2.66-1.11,3.54-2.06.88-.95,1.64-2.09,2.27-3.43l2.01-4.44.63,5.81-27.88-55.45h19.12l12.57,28.52,2.96,7.08h.74l2.85-7.18,11.83-28.41h18.59l-28.3,59.67c-1.69,3.59-3.7,6.44-6.02,8.55-2.32,2.11-5.02,3.64-8.08,4.59-3.06.95-6.64,1.43-10.72,1.43h-9.5Z"/>
  </g>
</svg>